<svg width="16" height="16" viewBox="0 0 16 16" fill="none" xmlns="http://www.w3.org/2000/svg">
<path fill-rule="evenodd" clip-rule="evenodd" d="M8 1.6C6.88061 1.59979 5.78074 1.89319 4.81018 2.4509C3.83961 3.00861 3.0323 3.81113 2.46882 4.77836C1.90534 5.74559 1.6054 6.84369 1.59894 7.96307C1.59248 9.08244 1.87973 10.1839 2.43201 11.1576C2.80529 10.6725 3.28515 10.2797 3.83447 10.0096C4.3838 9.7395 4.98787 9.59936 5.6 9.6H10.4C11.0121 9.59936 11.6162 9.7395 12.1655 10.0096C12.7149 10.2797 13.1947 10.6725 13.568 11.1576C14.1203 10.1839 14.4075 9.08244 14.4011 7.96307C14.3946 6.84369 14.0947 5.74559 13.5312 4.77836C12.9677 3.81113 12.1604 3.00861 11.1898 2.4509C10.2193 1.89319 9.11939 1.59979 8 1.6ZM14.3544 12.8608C14.4547 12.7301 14.5507 12.5963 14.6424 12.4592C15.5293 11.1414 16.0021 9.58849 16 8C16 3.5816 12.4184 0 8 0C3.58161 0 8.20435e-06 3.5816 8.20435e-06 8C-0.00251285 9.7574 0.576039 11.4663 1.64561 12.8608L1.64161 12.8752L1.92561 13.2056C2.67591 14.0828 3.60751 14.7869 4.65619 15.2693C5.70487 15.7517 6.84568 16.001 8 16C8.1728 16 8.34453 15.9947 8.5152 15.984C9.95871 15.893 11.3501 15.4104 12.54 14.588C13.109 14.1954 13.6248 13.7308 14.0744 13.2056L14.3584 12.8752L14.3544 12.8608ZM8 3.2C7.36348 3.2 6.75303 3.45286 6.30295 3.90294C5.85286 4.35303 5.6 4.96348 5.6 5.6C5.6 6.23652 5.85286 6.84697 6.30295 7.29706C6.75303 7.74714 7.36348 8 8 8C8.63652 8 9.24697 7.74714 9.69706 7.29706C10.1471 6.84697 10.4 6.23652 10.4 5.6C10.4 4.96348 10.1471 4.35303 9.69706 3.90294C9.24697 3.45286 8.63652 3.2 8 3.2Z" fill="black"/>
</svg>
