<svg width="50" height="46" viewBox="0 0 50 46" fill="none" xmlns="http://www.w3.org/2000/svg">
<path d="M4.04 45.7627C2.88833 45.7627 1.9275 45.3712 1.1575 44.5881C0.3875 43.8051 0.00166667 42.8271 0 41.6542V14.278C0 13.1068 0.385833 12.1297 1.1575 11.3466C1.92917 10.5636 2.89 10.1712 4.04 10.1695H11.4325L16.0575 5.08475H29.04V7.62712H17.14L12.53 12.7119H4.04C3.59 12.7119 3.22083 12.8585 2.9325 13.1517C2.64417 13.4449 2.5 13.8203 2.5 14.278V41.6568C2.5 42.1127 2.64417 42.4873 2.9325 42.7805C3.22083 43.0737 3.59 43.2203 4.04 43.2203H40.9625C41.4108 43.2203 41.7792 43.0737 42.0675 42.7805C42.3558 42.4873 42.5 42.1119 42.5 41.6542V21.3153H45V41.6542C45 42.8254 44.6142 43.8025 43.8425 44.5856C43.0708 45.3686 42.1108 45.761 40.9625 45.7627H4.04ZM42.5 12.7119V7.62712H37.5V5.08475H42.5V0H45V5.08475H50V7.62712H45V12.7119H42.5ZM22.5 37.4492C25.1117 37.4492 27.3192 36.5331 29.1225 34.7008C30.9258 32.8686 31.8275 30.6237 31.8275 27.9661C31.8275 25.3085 30.9258 23.0636 29.1225 21.2314C27.3192 19.3992 25.1117 18.4822 22.5 18.4805C19.8883 18.4788 17.6808 19.3958 15.8775 21.2314C14.0742 23.0669 13.1725 25.3119 13.1725 27.9661C13.1725 30.6203 14.0742 32.8653 15.8775 34.7008C17.6808 36.5364 19.8883 37.4534 22.5 37.4517M22.5 34.9093C20.5583 34.9093 18.935 34.2458 17.63 32.9186C16.325 31.5915 15.6725 29.9407 15.6725 27.9661C15.6725 25.9915 16.325 24.3407 17.63 23.0136C18.935 21.6864 20.5583 21.0229 22.5 21.0229C24.4417 21.0229 26.065 21.6864 27.37 23.0136C28.675 24.3407 29.3275 25.9915 29.3275 27.9661C29.3275 29.9407 28.675 31.5915 27.37 32.9186C26.065 34.2458 24.4417 34.9093 22.5 34.9093Z" fill="#BFBFBF"/>
</svg>
