<svg width="12" height="12" viewBox="0 0 12 12" fill="none" xmlns="http://www.w3.org/2000/svg">
<path d="M0.666992 10.6667V4.66666C0.666992 4.45555 0.714325 4.25555 0.808992 4.06666C0.903659 3.87777 1.0341 3.72222 1.20033 3.59999L5.20033 0.599995C5.43366 0.422217 5.70033 0.333328 6.00033 0.333328C6.30033 0.333328 6.56699 0.422217 6.80032 0.599995L10.8003 3.59999C10.967 3.72222 11.0977 3.87777 11.1923 4.06666C11.287 4.25555 11.3341 4.45555 11.3337 4.66666V10.6667C11.3337 11.0333 11.203 11.3473 10.9417 11.6087C10.6803 11.87 10.3665 12.0004 10.0003 12H8.00033C7.81144 12 7.65321 11.936 7.52566 11.808C7.3981 11.68 7.3341 11.5218 7.33366 11.3333V7.99999C7.33366 7.81111 7.26966 7.65288 7.14166 7.52533C7.01366 7.39777 6.85544 7.33377 6.66699 7.33333H5.33366C5.14477 7.33333 4.98655 7.39733 4.85899 7.52533C4.73144 7.65333 4.66744 7.81155 4.66699 7.99999V11.3333C4.66699 11.5222 4.60299 11.6807 4.47499 11.8087C4.34699 11.9367 4.18877 12.0004 4.00033 12H2.00033C1.63366 12 1.31988 11.8695 1.05899 11.6087C0.798103 11.3478 0.667437 11.0338 0.666992 10.6667Z" fill="black"/>
</svg>
